@startuml
'https://plantuml.com/class-diagram

class Element

'UPW
class UPwBaseElement

class UPwSmallStrainElement
class TransientPwElement
class SteadyStatePwElement
class UPwSmallStrainFICElement
class UPwUpdatedLagrangianFICElement
class UPwUpdatedLagrangianElement

class UPwSmallStrainInterfaceElement

Element <|-- UPwBaseElement
UPwBaseElement <|-- UPwSmallStrainElement

UPwSmallStrainElement <|-- TransientPwElement
TransientPwElement <|-- SteadyStatePwElement
UPwSmallStrainElement <|-- UPwSmallStrainFICElement
UPwSmallStrainFICElement <|-- UPwUpdatedLagrangianFICElement
UPwSmallStrainElement <|-- UPwUpdatedLagrangianElement

'
'
'Diff Order
class SmallStrainUPwDiffOrderElement
class UpdatedLagrangianUPwDiffOrderElement

UPwBaseElement <|-- SmallStrainUPwDiffOrderElement
SmallStrainUPwDiffOrderElement <|-- UpdatedLagrangianUPwDiffOrderElement

UPwBaseElement <|-- UPwSmallStrainInterfaceElement

class InterfaceElement
Element <|-- InterfaceElement

'Pw Elements
class PwElement
class GeoSteadyStatePwPipingElement

Element <|-- PwElement
Element <|-- GeoSteadyStatePwPipingElement

''Thermal
class TransientThermalElement
Element <|-- TransientThermalElement

@enduml
